<svg xmlns="http://www.w3.org/2000/svg" width="106.581" height="120.186" viewBox="0 0 106.581 120.186">
  <g id="Group_2" data-name="Group 2" transform="translate(-661 -620)">
    <path id="Path_5" data-name="Path 5" d="M56.875,122.187a9.233,9.233,0,0,1-4.619-1.236l-14.7-8.7c-2.193-1.228-1.125-1.661-.4-1.914a29.309,29.309,0,0,0,6.649-3,1.129,1.129,0,0,1,1.095.082L56.2,114.121a1.459,1.459,0,0,0,1.365,0L101.6,88.7a1.386,1.386,0,0,0,.674-1.193V36.66a1.421,1.421,0,0,0-.682-1.215l-44.04-25.4a1.386,1.386,0,0,0-1.361,0L12.178,35.454a1.417,1.417,0,0,0-.7,1.206V87.487a1.352,1.352,0,0,0,.691,1.176l12.079,6.971C30.8,98.9,34.808,95.05,34.808,91.178V41A1.288,1.288,0,0,1,36.1,39.708h5.58A1.288,1.288,0,0,1,42.964,41V91.182c0,8.735-4.756,13.736-13.04,13.736a18.839,18.839,0,0,1-10.143-2.756L8.2,95.522a9.3,9.3,0,0,1-4.619-8.035V36.66A9.28,9.28,0,0,1,8.2,28.612L52.248,3.183a9.641,9.641,0,0,1,9.254,0l44.04,25.428a9.293,9.293,0,0,1,4.623,8.027V87.487a9.319,9.319,0,0,1-4.623,8.035L61.5,120.95a9.237,9.237,0,0,1-4.627,1.236Z" transform="translate(657.415 618)" fill="#00d8fd"/>
    <path id="Path_9" data-name="Path 9" d="M8.188-8.585A1.447,1.447,0,0,1,7.12-9.006,1.447,1.447,0,0,1,6.7-10.074V-52.346a1.531,1.531,0,0,1,.421-1.133A1.447,1.447,0,0,1,8.188-53.9h15.8q7.445,0,11.652,3.5t4.208,10.1a12.935,12.935,0,0,1-2.428,8.092,12.538,12.538,0,0,1-6.83,4.4l9.969,17.22a1.611,1.611,0,0,1,.194.712,1.2,1.2,0,0,1-.421.906,1.351,1.351,0,0,1-.939.388H36.283a2.326,2.326,0,0,1-1.521-.453,4.279,4.279,0,0,1-1-1.295L24.372-26.776H13.043v16.7a1.394,1.394,0,0,1-.453,1.068,1.559,1.559,0,0,1-1.1.421ZM23.724-32.278q9.646,0,9.646-8.092t-9.646-8.092H13.043v16.184Z" transform="translate(707.301 712)" fill="#00d8fd"/>
  </g>
</svg>
